<?xml version="1.0" encoding="utf-8"?>
<!-- Generator: Adobe Illustrator 26.3.1, SVG Export Plug-In . SVG Version: 6.00 Build 0)  -->
<svg version="1.1" id="Layer_1" xmlns="http://www.w3.org/2000/svg" xmlns:xlink="http://www.w3.org/1999/xlink" x="0px" y="0px"
	 viewBox="0 0 391.4 100.8" style="enable-background:new 0 0 391.4 100.8;" xml:space="preserve">
<style type="text/css">
	.st0{fill:#F12323;}
	.st1{fill:#282828;}
</style>
<path class="st0" d="M9.9,62c0.8,1.1,1.9,1.6,3.1,1.6h29.9c1.2,0,3.2-0.3,4.3-3.9c1.2-3.6,1.4-4.3,2.2-6.8c0.3-1.1,0.9-3,4.3-3h29.7
	c2.1,0,4-1.4,4.7-3.6c1.5-5,2.3-10.4,2.3-15.7c0-1.3-0.9-2.3-2-2.3c-9.6,0-19.1,0-28.7,0c-0.8,0-1.4-0.9-1.1-1.7
	c1.1-3.2,2.1-6.3,3.1-9.5c0.4-1.1,1.9-3.3,4.6-3.3h18.3c1.6,0,2.8-1.8,2.1-3.5c-1.1-2.9-2.4-5.7-4-8.3c-0.7-1.2-2-1.9-3.3-1.9h-9.4
	C69,0,67.1,0.3,66,3.9c-1.2,3.7-1.4,4.2-2.2,6.8c-0.3,1.1-0.9,3-4.4,3H6.1c-2.2,0-4.2,1.6-4.8,4c-1,4.7-1.5,9.6-1.3,14.5
	C0.1,34,1.4,35.3,3,35.3c16.7,0,33.8,0,50.5,0c0.8,0,1.4,0.9,1.1,1.8c-1,3.2-2,6.3-3.1,9.5c-0.4,1.1-1.4,3.3-4.2,3.3H6.6
	c-1.5,0-2.5,1.7-1.8,3.2C6.3,56.2,8,59.2,9.9,62z"/>
<path class="st1" d="M183.1,4c1.2,0,1.8,0.6,1.8,1.8v8.1c0,1.2-0.6,1.8-1.8,1.8h-45.8c-2.1,0-3.6,0.4-4.4,1.2
	c-0.8,0.7-1.2,1.9-1.2,3.3v1.5c0,1.4,0.4,2.4,1.2,3.2c0.8,0.7,2.3,1.1,4.4,1.1h34.2c5.7,0,9.7,1.2,12.2,3.6c2.4,2.4,3.7,5.7,3.7,10
	v5.7c0,2.2-0.3,4.2-0.8,6c-0.5,1.8-1.5,3.2-2.7,4.5c-1.2,1.2-2.8,2.2-4.9,2.8c-2,0.6-4.5,0.9-7.5,0.9h-51.9c-1.2,0-1.8-0.6-1.8-1.8
	v-8.1c0-1.2,0.6-1.8,1.8-1.8h48.1c2.1,0,3.6-0.4,4.4-1.1c0.9-0.7,1.3-2,1.3-3.8v-2.7c0-1.4-0.4-2.4-1.3-3.1
	c-0.8-0.7-2.3-1.1-4.4-1.1h-34.1c-5.7,0-9.7-1.1-12.2-3.4c-2.4-2.4-3.7-5.8-3.7-10.2v-4.5c0-2.1,0.3-4,0.8-5.7
	c0.5-1.8,1.4-3.2,2.6-4.5c1.3-1.2,2.9-2.1,5-2.7c2-0.7,4.5-1,7.5-1H183.1z"/>
<path class="st1" d="M210.6,4c1.5,0,2.2,0.8,2.2,2.3v51.1c0,1.5-0.7,2.2-2.2,2.2h-9.9c-1.5,0-2.2-0.7-2.2-2.2V6.3
	c0-1.6,0.7-2.3,2.2-2.3H210.6z"/>
<path class="st1" d="M278.7,4c4.5,0,8.4,0.4,11.5,1.2c3.1,0.7,5.6,2,7.4,3.7c1.9,1.6,3.2,3.8,4.1,6.4c0.8,2.6,1.2,5.7,1.2,9.3v32.9
	c0,1.5-0.7,2.2-2.2,2.2h-9.9c-1.5,0-2.2-0.7-2.2-2.2V28c0-2.1-0.1-3.9-0.4-5.3c-0.3-1.5-0.8-2.6-1.6-3.4c-0.7-0.9-1.8-1.5-3.1-1.8
	c-1.4-0.4-3.1-0.6-5.3-0.6h-27c-2.2,0-4,0.2-5.4,0.6c-1.4,0.3-2.6,0.9-3.5,1.8c-0.8,0.8-1.4,2-1.7,3.4c-0.3,1.4-0.5,3.2-0.5,5.3
	v29.4c0,1.5-0.7,2.2-2.2,2.2h-9.9c-1.6,0-2.3-0.7-2.3-2.2V24.6c0-3.7,0.4-6.8,1.2-9.3c0.8-2.6,2.1-4.8,4-6.4
	c1.9-1.7,4.4-2.9,7.4-3.7c3.1-0.8,7-1.2,11.6-1.2H278.7z"/>
<path class="st1" d="M366.5,4c4.5,0,8.4,0.4,11.5,1.2c3.1,0.7,5.6,2,7.4,3.7c1.9,1.6,3.2,3.8,4.1,6.4c0.8,2.6,1.2,5.7,1.2,9.3v14.6
	c0,3.7-0.4,6.8-1.2,9.4c-0.8,2.6-2.2,4.7-4.1,6.4c-1.8,1.6-4.3,2.8-7.4,3.6c-3.1,0.7-6.9,1.1-11.5,1.1h-28.7
	c-4.6,0-8.5-0.4-11.6-1.1c-3-0.7-5.5-1.9-7.4-3.6c-1.8-1.7-3.1-3.8-4-6.4c-0.8-2.6-1.2-5.8-1.2-9.4V24.6c0-3.7,0.4-6.8,1.2-9.3
	c0.8-2.6,2.1-4.8,4-6.4c1.9-1.7,4.4-2.9,7.4-3.7c3.1-0.8,7-1.2,11.6-1.2H366.5z M328.2,36.6c0,2.2,0.2,4,0.5,5.4
	c0.3,1.4,0.9,2.6,1.7,3.4c0.9,0.8,2,1.4,3.4,1.8c1.4,0.3,3.2,0.5,5.4,0.5h25.9c2.2,0,4.1-0.2,5.5-0.5c1.4-0.4,2.5-1,3.3-1.8
	c0.9-0.9,1.5-2,1.8-3.4c0.3-1.4,0.5-3.2,0.5-5.4V27c0-2.1-0.2-3.9-0.5-5.3c-0.3-1.4-0.9-2.6-1.8-3.4c-0.8-0.9-1.9-1.5-3.3-1.8
	c-1.4-0.3-3.2-0.5-5.5-0.5h-25.9c-2.2,0-4,0.2-5.4,0.5c-1.4,0.3-2.6,0.9-3.4,1.8c-0.8,0.9-1.4,2-1.7,3.4c-0.3,1.4-0.5,3.2-0.5,5.3
	V36.6z"/>
<path class="st1" d="M131.3,88.7c-0.4,0-0.6-0.2-0.6-0.6v-1.2c0-0.9-0.2-1.5-0.6-1.9c-0.4-0.4-1-0.6-1.9-0.6h-4.7
	c-0.9,0-1.6,0.2-1.9,0.6c-0.4,0.4-0.6,1-0.6,1.9v9.4c0,0.9,0.2,1.5,0.6,1.9c0.4,0.4,1,0.6,1.9,0.6h4.7c0.9,0,1.5-0.2,1.9-0.6
	c0.4-0.4,0.6-1.1,0.6-1.9v-2.8h-4.3c-0.4,0-0.6-0.2-0.6-0.5c0-0.3,0.2-0.5,0.6-0.5h5c0.2,0,0.4,0,0.5,0.1c0.1,0.1,0.1,0.2,0.1,0.5
	v3.2c0,1.2-0.3,2.1-0.9,2.7c-0.6,0.6-1.5,0.9-2.9,0.9h-4.9c-1.3,0-2.3-0.3-2.9-0.9c-0.6-0.6-0.9-1.5-0.9-2.7v-9.4
	c0-1.2,0.3-2.2,0.9-2.7c0.6-0.6,1.5-0.9,2.9-0.9h4.9c1.3,0,2.3,0.3,2.9,0.9c0.6,0.6,0.9,1.5,0.9,2.7V88c0,0.5-0.2,0.7-0.6,0.7H131.3
	z"/>
<path class="st1" d="M152,98.5c0.4,0,0.6,0.2,0.6,0.6c0,0.4-0.2,0.6-0.6,0.6h-8.6c-0.2,0-0.4,0-0.5-0.1c-0.1-0.1-0.1-0.3-0.1-0.5
	V84.1c0-0.2,0.1-0.4,0.2-0.5c0.1-0.1,0.3-0.2,0.5-0.2c0.2,0,0.4,0.1,0.5,0.2c0.1,0.1,0.2,0.3,0.2,0.5v14.4H152z"/>
<path class="st1" d="M165.1,99.9c-1.3,0-2.3-0.3-2.9-0.9c-0.6-0.6-0.9-1.5-0.9-2.7v-9.4c0-1.2,0.3-2.2,0.9-2.7
	c0.6-0.6,1.5-0.9,2.9-0.9h5.3c1.3,0,2.3,0.3,2.9,0.9c0.6,0.6,0.9,1.5,0.9,2.7v9.4c0,1.2-0.3,2.2-0.9,2.7c-0.6,0.6-1.5,0.9-2.9,0.9
	H165.1z M165.2,98.8h5.1c0.9,0,1.6-0.2,1.9-0.6c0.4-0.4,0.6-1.1,0.6-1.9v-9.4c0-0.9-0.2-1.5-0.6-1.9c-0.4-0.4-1-0.6-1.9-0.6h-5.1
	c-0.9,0-1.6,0.2-1.9,0.6c-0.4,0.4-0.6,1-0.6,1.9v9.4c0,0.9,0.2,1.5,0.6,1.9C163.6,98.6,164.3,98.8,165.2,98.8z"/>
<path class="st1" d="M193.8,91.4c1.6,0.3,2.3,1.4,2.3,3.3v1.5c0,1.2-0.3,2.1-0.9,2.7c-0.6,0.6-1.5,0.9-2.7,0.9h-6.8
	c-0.2,0-0.4,0-0.5-0.1c-0.1-0.1-0.1-0.3-0.1-0.5V84c0-0.2,0-0.4,0.1-0.5c0.1-0.1,0.3-0.1,0.5-0.1h6.3c1.2,0,2.1,0.3,2.7,0.9
	c0.6,0.6,0.9,1.5,0.9,2.7v1.3C195.7,90,195.1,91,193.8,91.4z M194.3,86.9c0-0.9-0.2-1.5-0.6-1.9c-0.4-0.4-1-0.6-1.8-0.6h-5.5v6.5
	h5.5c0.8,0,1.4-0.2,1.8-0.6c0.4-0.4,0.6-1,0.6-1.9V86.9z M194.8,96.2v-1.7c0-0.9-0.2-1.5-0.6-1.9c-0.4-0.4-1-0.6-1.8-0.6h-6.1v6.7h6
	c0.8,0,1.4-0.2,1.8-0.6C194.6,97.7,194.8,97,194.8,96.2z"/>
<path class="st1" d="M219.4,98.8c0.1,0.3,0.1,0.5,0,0.7c-0.1,0.2-0.3,0.3-0.5,0.3c-0.3,0-0.6-0.2-0.7-0.5L216,94h-7.8l-2.2,5.2
	c-0.1,0.2-0.2,0.3-0.2,0.4c-0.1,0.1-0.2,0.1-0.4,0.1c-0.3,0-0.5-0.1-0.6-0.3c-0.1-0.2-0.1-0.4,0-0.7l6.3-14.7
	c0.2-0.5,0.5-0.7,0.9-0.7c0.4,0,0.8,0.2,0.9,0.7L219.4,98.8z M208.6,93h6.9l-3.5-8.3L208.6,93z"/>
<path class="st1" d="M238.3,98.5c0.4,0,0.6,0.2,0.6,0.6c0,0.4-0.2,0.6-0.6,0.6h-8.6c-0.2,0-0.4,0-0.5-0.1c-0.1-0.1-0.1-0.3-0.1-0.5
	V84.1c0-0.2,0.1-0.4,0.2-0.5c0.1-0.1,0.3-0.2,0.5-0.2c0.2,0,0.4,0.1,0.5,0.2c0.1,0.1,0.2,0.3,0.2,0.5v14.4H238.3z"/>
<path class="st1" d="M263.6,99.9c-1.3,0-2.3-0.3-2.9-0.9c-0.6-0.6-0.9-1.5-0.9-2.7v-9.4c0-1.2,0.3-2.2,0.9-2.7
	c0.6-0.6,1.5-0.9,2.9-0.9h3.9c1.3,0,2.3,0.3,2.9,0.9c0.6,0.6,0.9,1.5,0.9,2.7V88c0,0.5-0.2,0.7-0.6,0.7h-0.2c-0.4,0-0.6-0.2-0.6-0.6
	v-1.3c0-0.9-0.2-1.5-0.6-1.9c-0.4-0.4-1-0.6-1.9-0.6h-3.7c-0.9,0-1.6,0.2-1.9,0.6c-0.4,0.4-0.6,1-0.6,1.9v9.4c0,0.9,0.2,1.5,0.6,1.9
	c0.4,0.4,1,0.6,1.9,0.6h3.7c0.9,0,1.5-0.2,1.9-0.6c0.4-0.4,0.6-1.1,0.6-1.9v-1.2c0-0.4,0.2-0.6,0.6-0.6h0.2c0.4,0,0.6,0.2,0.6,0.7
	v1.1c0,1.2-0.3,2.1-0.9,2.7c-0.6,0.6-1.5,0.9-2.9,0.9H263.6z"/>
<path class="st1" d="M294.2,98.8c0.1,0.3,0.1,0.5,0,0.7c-0.1,0.2-0.3,0.3-0.5,0.3c-0.3,0-0.6-0.2-0.7-0.5l-2.2-5.2H283l-2.2,5.2
	c-0.1,0.2-0.2,0.3-0.2,0.4c-0.1,0.1-0.2,0.1-0.4,0.1c-0.3,0-0.5-0.1-0.6-0.3c-0.1-0.2-0.1-0.4,0-0.7L286,84c0.2-0.5,0.5-0.7,0.9-0.7
	c0.4,0,0.8,0.2,0.9,0.7L294.2,98.8z M283.4,93h6.9l-3.5-8.3L283.4,93z"/>
<path class="st1" d="M310.2,83.4c1.2,0,2.2,0.3,2.8,0.9c0.6,0.6,0.9,1.5,0.9,2.7v2.9c0,1.2-0.3,2.1-0.9,2.7
	c-0.6,0.6-1.5,0.9-2.8,0.9h-5V99c0,0.5-0.2,0.7-0.7,0.7c-0.5,0-0.7-0.2-0.7-0.7V84c0-0.2,0-0.4,0.1-0.5c0.1-0.1,0.3-0.1,0.5-0.1
	H310.2z M312.5,89.9v-3c0-1.6-0.8-2.5-2.4-2.5h-4.8v7.9h4.8c0.8,0,1.4-0.2,1.8-0.6C312.3,91.4,312.5,90.7,312.5,89.9z"/>
<path class="st1" d="M325.3,99.7c-0.5,0-0.7-0.2-0.7-0.7V84.1c0-0.5,0.2-0.7,0.7-0.7c0.5,0,0.7,0.2,0.7,0.7V99
	C326,99.5,325.8,99.7,325.3,99.7z"/>
<path class="st1" d="M348.8,83.5c0.4,0,0.6,0.2,0.6,0.5c0,0.4-0.2,0.6-0.6,0.6h-5.6V99c0,0.5-0.2,0.7-0.7,0.7
	c-0.5,0-0.7-0.2-0.7-0.7V84.6h-5.6c-0.4,0-0.6-0.2-0.6-0.6c0-0.4,0.2-0.5,0.6-0.5H348.8z"/>
<path class="st1" d="M370.2,98.8c0.1,0.3,0.1,0.5,0,0.7c-0.1,0.2-0.3,0.3-0.5,0.3c-0.3,0-0.6-0.2-0.7-0.5l-2.2-5.2H359l-2.2,5.2
	c-0.1,0.2-0.2,0.3-0.2,0.4c-0.1,0.1-0.2,0.1-0.4,0.1c-0.3,0-0.5-0.1-0.6-0.3c-0.1-0.2-0.1-0.4,0-0.7L362,84c0.2-0.5,0.5-0.7,0.9-0.7
	c0.4,0,0.8,0.2,0.9,0.7L370.2,98.8z M359.4,93h6.9l-3.5-8.3L359.4,93z"/>
<path class="st1" d="M389.2,98.5c0.4,0,0.6,0.2,0.6,0.6c0,0.4-0.2,0.6-0.6,0.6h-8.6c-0.2,0-0.4,0-0.5-0.1c-0.1-0.1-0.1-0.3-0.1-0.5
	V84.1c0-0.2,0.1-0.4,0.2-0.5c0.1-0.1,0.3-0.2,0.5-0.2c0.2,0,0.4,0.1,0.5,0.2c0.1,0.1,0.2,0.3,0.2,0.5v14.4H389.2z"/>
</svg>
